<?xml version="1.0" encoding="utf-8"?>
<!-- Generator: Adobe Illustrator 17.1.0, SVG Export Plug-In . SVG Version: 6.00 Build 0)  -->
<!DOCTYPE svg PUBLIC "-//W3C//DTD SVG 1.1//EN" "http://www.w3.org/Graphics/SVG/1.1/DTD/svg11.dtd">
<svg version="1.1" id="Layer_1" xmlns="http://www.w3.org/2000/svg" xmlns:xlink="http://www.w3.org/1999/xlink" x="0px" y="0px"
	 viewBox="0 0 32 32" style="enable-background:new 0 0 32 32;" xml:space="preserve">
<g>
	<path d="M24.2,17.5c0.8-1.4,0.9-2.9,0.1-4.3c-0.9-1.4-2.3-1.8-4-1.6c0.3-1.5,0.2-2.9-0.7-4.1c-0.9-1.2-2.1-1.8-3.6-1.8
		c-0.5,2-0.9,2.6-2.4,3.4C13,9.4,12.3,9.7,11.7,10c-0.9,0.4-1.8,0.8-2.7,1.3c-2.3,1.4-2.4,3.9-1.2,5.8c0.1,0.1,0.2,0.3,0.3,0.4
		c-0.2,0.1-0.4,0.1-0.6,0.2c-2.2,0.6-3.6,2.7-3.3,5c0.3,2.1,2.2,3.8,4.4,3.8c5,0,9.9,0,14.9,0c2.3,0,4.9-2.1,4.2-5.4
		C27.4,19.1,26.1,18,24.2,17.5z"/>
	<path d="M24.2,17.5c1.9,0.5,3.1,1.6,3.5,3.5c0.7,3.3-2,5.4-4.2,5.4c-5,0-9.9,0-14.9,0c-2.2,0-4.1-1.6-4.4-3.8
		c-0.3-2.3,1.1-4.4,3.3-5c0.2,0,0.4-0.1,0.6-0.2C8,17.2,7.9,17.1,7.8,17c-1.2-1.9-1.1-4.4,1.2-5.8c0.8-0.5,1.8-0.8,2.7-1.3
		c0.6-0.3,1.3-0.6,1.9-0.9c1.5-0.9,1.9-1.4,2.4-3.4c1.5,0,2.7,0.6,3.6,1.8c0.9,1.2,1,2.6,0.7,4.1c1.7-0.2,3.1,0.2,4,1.6
		C25.2,14.6,25.1,16,24.2,17.5z"/>
</g>
</svg>
